<?xml version="1.0" encoding="UTF-8" standalone="no"?>
<!DOCTYPE svg PUBLIC "-//W3C//DTD SVG 1.1//EN"
 "http://www.w3.org/Graphics/SVG/1.1/DTD/svg11.dtd">
<!-- Generated by graphviz version 11.0.0 (0)
 -->
<!-- Title: dependency&#45;cruiser output Pages: 1 -->
<svg width="827pt" height="512pt"
 viewBox="0.00 0.00 827.00 512.12" xmlns="http://www.w3.org/2000/svg" xmlns:xlink="http://www.w3.org/1999/xlink">
<g id="graph0" class="graph" transform="scale(1 1) rotate(0) translate(4 508.12)">
<title>dependency&#45;cruiser output</title>
<polygon fill="white" stroke="none" points="-4,4 -4,-508.12 823,-508.12 823,4 -4,4"/>
<g id="clust1" class="cluster">
<title>cluster_src</title>
<path fill="#ffffff" stroke="black" stroke-width="2" d="M20,-8C20,-8 799,-8 799,-8 805,-8 811,-14 811,-20 811,-20 811,-484.13 811,-484.13 811,-490.13 805,-496.13 799,-496.13 799,-496.13 20,-496.13 20,-496.13 14,-496.13 8,-490.13 8,-484.13 8,-484.13 8,-20 8,-20 8,-14 14,-8 20,-8"/>
<text text-anchor="middle" x="409.5" y="-483.58" font-family="Helvetica,sans-Serif" font-weight="bold" font-size="9.00">src</text>
</g>
<g id="clust2" class="cluster">
<title>cluster_src/modules</title>
<path fill="#ffffff" stroke="black" stroke-width="2" d="M28,-149C28,-149 753,-149 753,-149 759,-149 765,-155 765,-161 765,-161 765,-445.28 765,-445.28 765,-451.28 759,-457.28 753,-457.28 753,-457.28 28,-457.28 28,-457.28 22,-457.28 16,-451.28 16,-445.28 16,-445.28 16,-161 16,-161 16,-155 22,-149 28,-149"/>
<text text-anchor="middle" x="390.5" y="-444.73" font-family="Helvetica,sans-Serif" font-weight="bold" font-size="9.00">modules</text>
</g>
<g id="clust3" class="cluster">
<title>cluster_src/modules/booking</title>
<path fill="#ffffff" stroke="black" stroke-width="2" d="M36,-165C36,-165 284,-165 284,-165 290,-165 296,-171 296,-177 296,-177 296,-379.18 296,-379.18 296,-385.18 290,-391.18 284,-391.18 284,-391.18 36,-391.18 36,-391.18 30,-391.18 24,-385.18 24,-379.18 24,-379.18 24,-177 24,-177 24,-171 30,-165 36,-165"/>
<text text-anchor="start" x="139.38" y="-378.62" font-family="Helvetica,sans-Serif" font-weight="bold" font-size="9.00">booking</text>
</g>
<g id="clust4" class="cluster">
<title>cluster_src/modules/booking/infra</title>
<path fill="#ffffff" stroke="black" stroke-width="2" d="M44,-200.25C44,-200.25 264,-200.25 264,-200.25 270,-200.25 276,-206.25 276,-212.25 276,-212.25 276,-351.93 276,-351.93 276,-357.93 270,-363.93 264,-363.93 264,-363.93 44,-363.93 44,-363.93 38,-363.93 32,-357.93 32,-351.93 32,-351.93 32,-212.25 32,-212.25 32,-206.25 38,-200.25 44,-200.25"/>
<text text-anchor="middle" x="154" y="-351.38" font-family="Helvetica,sans-Serif" font-weight="bold" font-size="9.00">infra</text>
</g>
<g id="clust5" class="cluster">
<title>cluster_src/modules/reserve&#45;booking&#45;saga</title>
<path fill="#ffffff" stroke="black" stroke-width="2" d="M340,-157C340,-157 733,-157 733,-157 739,-157 745,-163 745,-169 745,-169 745,-418.03 745,-418.03 745,-424.03 739,-430.03 733,-430.03 733,-430.03 340,-430.03 340,-430.03 334,-430.03 328,-424.03 328,-418.03 328,-418.03 328,-169 328,-169 328,-163 334,-157 340,-157"/>
<text text-anchor="start" x="481" y="-417.48" font-family="Helvetica,sans-Serif" font-weight="bold" font-size="9.00">reserve&#45;booking&#45;saga</text>
</g>
<g id="clust6" class="cluster">
<title>cluster_src/modules/reserve&#45;booking&#45;saga/application</title>
<path fill="#ffffff" stroke="black" stroke-width="2" d="M676,-254.93C676,-254.93 725,-254.93 725,-254.93 731,-254.93 737,-260.93 737,-266.93 737,-266.93 737,-344.1 737,-344.1 737,-350.1 731,-356.1 725,-356.1 725,-356.1 676,-356.1 676,-356.1 670,-356.1 664,-350.1 664,-344.1 664,-344.1 664,-266.93 664,-266.93 664,-260.93 670,-254.93 676,-254.93"/>
<text text-anchor="start" x="672" y="-343.55" font-family="Helvetica,sans-Serif" font-weight="bold" font-size="9.00">application</text>
</g>
<g id="clust7" class="cluster">
<title>cluster_src/modules/reserve&#45;booking&#45;saga/domain</title>
<path fill="#ffffff" stroke="black" stroke-width="2" d="M616,-165C616,-165 662,-165 662,-165 668,-165 674,-171 674,-177 674,-177 674,-234.93 674,-234.93 674,-240.93 668,-246.93 662,-246.93 662,-246.93 616,-246.93 616,-246.93 610,-246.93 604,-240.93 604,-234.93 604,-234.93 604,-177 604,-177 604,-171 610,-165 616,-165"/>
<text text-anchor="start" x="619.88" y="-234.38" font-family="Helvetica,sans-Serif" font-weight="bold" font-size="9.00">domain</text>
</g>
<g id="clust8" class="cluster">
<title>cluster_src/modules/reserve&#45;booking&#45;saga/infra</title>
<path fill="#ffffff" stroke="black" stroke-width="2" d="M348,-254.93C348,-254.93 634,-254.93 634,-254.93 640,-254.93 646,-260.93 646,-266.93 646,-266.93 646,-297.43 646,-297.43 646,-303.43 640,-309.43 634,-309.43 634,-309.43 348,-309.43 348,-309.43 342,-309.43 336,-303.43 336,-297.43 336,-297.43 336,-266.93 336,-266.93 336,-260.93 342,-254.93 348,-254.93"/>
<text text-anchor="middle" x="491" y="-296.88" font-family="Helvetica,sans-Serif" font-weight="bold" font-size="9.00">infra</text>
</g>
<g id="clust9" class="cluster">
<title>cluster_src/shared</title>
<path fill="#ffffff" stroke="black" stroke-width="2" d="M465,-16C465,-16 791,-16 791,-16 797,-16 803,-22 803,-28 803,-28 803,-129 803,-129 803,-135 797,-141 791,-141 791,-141 465,-141 465,-141 459,-141 453,-135 453,-129 453,-129 453,-28 453,-28 453,-22 459,-16 465,-16"/>
<text text-anchor="middle" x="628" y="-128.45" font-family="Helvetica,sans-Serif" font-weight="bold" font-size="9.00">shared</text>
</g>
<g id="clust10" class="cluster">
<title>cluster_src/shared/infra</title>
<path fill="#ffffff" stroke="black" stroke-width="2" d="M473,-24C473,-24 705,-24 705,-24 711,-24 717,-30 717,-36 717,-36 717,-101.75 717,-101.75 717,-107.75 711,-113.75 705,-113.75 705,-113.75 473,-113.75 473,-113.75 467,-113.75 461,-107.75 461,-101.75 461,-101.75 461,-36 461,-36 461,-30 467,-24 473,-24"/>
<text text-anchor="middle" x="589" y="-101.2" font-family="Helvetica,sans-Serif" font-weight="bold" font-size="9.00">infra</text>
</g>
<g id="clust11" class="cluster">
<title>cluster_src/shared/infra/postgres</title>
<path fill="#ffffff" stroke="black" stroke-width="2" d="M481,-32C481,-32 619,-32 619,-32 625,-32 631,-38 631,-44 631,-44 631,-74.5 631,-74.5 631,-80.5 625,-86.5 619,-86.5 619,-86.5 481,-86.5 481,-86.5 475,-86.5 469,-80.5 469,-74.5 469,-74.5 469,-44 469,-44 469,-38 475,-32 481,-32"/>
<text text-anchor="start" x="527.5" y="-73.95" font-family="Helvetica,sans-Serif" font-weight="bold" font-size="9.00">postgres</text>
</g>
<!-- src -->
<!-- src/modules/booking -->
<!-- src&#45;&gt;src/modules/booking -->
<g id="edge1" class="edge">
<title>src&#45;&gt;src/modules/booking</title>
<path fill="none" stroke="#000000" stroke-width="2" stroke-opacity="0.200000" d="M772.04,-466.07C740.35,-465.97 334.55,-464.52 325,-457.28 286.66,-428.21 284.73,-362.65 285.47,-337.82"/>
<polygon fill="#000000" fill-opacity="0.200000" stroke="#000000" stroke-width="2" stroke-opacity="0.200000" points="287.55,-338.22 285.76,-332.13 283.36,-338.01 287.55,-338.22"/>
</g>
<!-- src/modules/reserve&#45;booking&#45;saga -->
<!-- src&#45;&gt;src/modules/reserve&#45;booking&#45;saga -->
<g id="edge2" class="edge">
<title>src&#45;&gt;src/modules/reserve&#45;booking&#45;saga</title>
<path fill="none" stroke="#000000" stroke-width="2" stroke-opacity="0.200000" d="M772.19,-466.04C759.71,-465.78 686.83,-464.01 680,-457.28 668.03,-445.48 669.56,-424.17 671.77,-411.73"/>
<polygon fill="#000000" fill-opacity="0.200000" stroke="#000000" stroke-width="2" stroke-opacity="0.200000" points="673.82,-412.2 673.07,-405.88 669.72,-411.28 673.82,-412.2"/>
</g>
<!-- src/shared/infra/postgres -->
<!-- src&#45;&gt;src/shared/infra/postgres -->
<g id="edge3" class="edge">
<title>src&#45;&gt;src/shared/infra/postgres</title>
<path fill="none" stroke="#000000" stroke-width="2" stroke-opacity="0.200000" d="M774,-464.97C774,-455.37 774,-385.08 774,-328.05 774,-328.05 774,-328.05 774,-216.88 774,-176.02 749.09,-166.15 712,-149 689.29,-138.5 505.15,-158.22 487,-141 464.88,-120.01 471.64,-79.08 476.25,-60.38"/>
<polygon fill="#000000" fill-opacity="0.200000" stroke="#000000" stroke-width="2" stroke-opacity="0.200000" points="478.26,-60.99 477.84,-54.64 474.21,-59.86 478.26,-60.99"/>
</g>
<!-- src/shared/infra/rabbit -->
<g id="node5" class="node">
<title>src/shared/infra/rabbit</title>
<g id="a_node5"><a xlink:href="src/shared/infra/rabbit" xlink:title="rabbit">
<polygon fill="#ffffcc" stroke="black" points="693,-59.25 641.14,-59.25 639,-57.11 639,-40 690.86,-40 693,-42.14 693,-59.25"/>
<polyline fill="none" stroke="black" points="690.86,-57.11 639,-57.11"/>
<polyline fill="none" stroke="black" points="690.86,-57.11 690.86,-40"/>
<polyline fill="none" stroke="black" points="690.86,-57.11 693,-59.25"/>
<text text-anchor="start" x="652.5" y="-46.7" font-family="Helvetica,sans-Serif" font-size="9.00">rabbit</text>
</a>
</g>
</g>
<!-- src&#45;&gt;src/shared/infra/rabbit -->
<g id="edge4" class="edge">
<title>src&#45;&gt;src/shared/infra/rabbit</title>
<path fill="none" stroke="#000000" stroke-width="2" stroke-opacity="0.200000" d="M774.47,-465.29C775.35,-463.79 777.2,-460.4 778,-457.28 792.36,-401.49 788,-385.66 788,-328.05 788,-328.05 788,-328.05 788,-216.88 788,-186.38 800.04,-170.07 778,-149 765.24,-136.81 712.93,-151.83 699,-141 676.57,-123.57 669.38,-89.41 667.08,-68.44"/>
<polygon fill="#000000" fill-opacity="0.200000" stroke="#000000" stroke-width="2" stroke-opacity="0.200000" points="669.18,-68.41 666.57,-62.61 665,-68.77 669.18,-68.41"/>
</g>
<!-- src/shared/others -->
<g id="node6" class="node">
<title>src/shared/others</title>
<g id="a_node6"><a xlink:href="src/shared/others" xlink:title="others">
<polygon fill="#ffffcc" stroke="black" points="779,-59.25 727.14,-59.25 725,-57.11 725,-40 776.86,-40 779,-42.14 779,-59.25"/>
<polyline fill="none" stroke="black" points="776.86,-57.11 725,-57.11"/>
<polyline fill="none" stroke="black" points="776.86,-57.11 776.86,-40"/>
<polyline fill="none" stroke="black" points="776.86,-57.11 779,-59.25"/>
<text text-anchor="start" x="737.75" y="-46.7" font-family="Helvetica,sans-Serif" font-size="9.00">others</text>
</a>
</g>
</g>
<!-- src&#45;&gt;src/shared/others -->
<g id="edge5" class="edge">
<title>src&#45;&gt;src/shared/others</title>
<path fill="none" stroke="#000000" stroke-width="2" stroke-opacity="0.200000" d="M775.65,-465.82C779.3,-465.16 788.09,-463.03 792,-457.28 824.37,-409.62 802,-385.66 802,-328.05 802,-328.05 802,-328.05 802,-216.88 802,-186.38 804.78,-176.68 792,-149 790.02,-144.71 787.41,-145.07 785,-141 771.09,-117.5 761.49,-87.15 756.36,-68.29"/>
<polygon fill="#000000" fill-opacity="0.200000" stroke="#000000" stroke-width="2" stroke-opacity="0.200000" points="758.4,-67.78 754.86,-62.5 754.34,-68.84 758.4,-67.78"/>
</g>
<!-- src/modules/reserve&#45;booking&#45;saga/controller -->
<g id="node10" class="node">
<title>src/modules/reserve&#45;booking&#45;saga/controller</title>
<g id="a_node10"><a xlink:href="src/modules/reserve-booking-saga/controller" xlink:title="controller">
<polygon fill="#ffffcc" stroke="black" points="656.38,-336.68 599.76,-336.68 597.62,-334.54 597.62,-317.43 654.24,-317.43 656.38,-319.56 656.38,-336.68"/>
<polyline fill="none" stroke="black" points="654.24,-334.54 597.62,-334.54"/>
<polyline fill="none" stroke="black" points="654.24,-334.54 654.24,-317.43"/>
<polyline fill="none" stroke="black" points="654.24,-334.54 656.38,-336.68"/>
<text text-anchor="start" x="605.62" y="-324.12" font-family="Helvetica,sans-Serif" font-size="9.00">controller</text>
</a>
</g>
</g>
<!-- src/modules/reserve&#45;booking&#45;saga&#45;&gt;src/modules/reserve&#45;booking&#45;saga/controller -->
<g id="edge18" class="edge">
<title>src/modules/reserve&#45;booking&#45;saga&#45;&gt;src/modules/reserve&#45;booking&#45;saga/controller</title>
<path fill="none" stroke="#000000" stroke-width="2" stroke-opacity="0.200000" d="M672.63,-399.33C670.07,-398.07 664.51,-395.06 661,-391.18 648.68,-377.54 639.26,-358.63 633.49,-345.07"/>
<polygon fill="#000000" fill-opacity="0.200000" stroke="#000000" stroke-width="2" stroke-opacity="0.200000" points="635.58,-344.62 631.38,-339.85 631.68,-346.2 635.58,-344.62"/>
</g>
<!-- src/modules/reserve&#45;booking&#45;saga/application -->
<!-- src/modules/reserve&#45;booking&#45;saga&#45;&gt;src/modules/reserve&#45;booking&#45;saga/application -->
<g id="edge17" class="edge">
<title>src/modules/reserve&#45;booking&#45;saga&#45;&gt;src/modules/reserve&#45;booking&#45;saga/application</title>
<path fill="none" stroke="#000000" stroke-width="2" stroke-opacity="0.200000" d="M674,-398.73C674,-391.61 674,-355.83 674,-338.08"/>
<polygon fill="#000000" fill-opacity="0.200000" stroke="#000000" stroke-width="2" stroke-opacity="0.200000" points="676.1,-338.14 674,-332.14 671.9,-338.14 676.1,-338.14"/>
</g>
<!-- src/modules -->
<!-- src/modules/booking/domain -->
<g id="node8" class="node">
<title>src/modules/booking/domain</title>
<g id="a_node8"><a xlink:href="src/modules/booking/domain" xlink:title="domain">
<polygon fill="#ffffcc" stroke="black" points="288,-192.25 236.14,-192.25 234,-190.11 234,-173 285.86,-173 288,-175.14 288,-192.25"/>
<polyline fill="none" stroke="black" points="285.86,-190.11 234,-190.11"/>
<polyline fill="none" stroke="black" points="285.86,-190.11 285.86,-173"/>
<polyline fill="none" stroke="black" points="285.86,-190.11 288,-192.25"/>
<text text-anchor="start" x="244.12" y="-179.7" font-family="Helvetica,sans-Serif" font-size="9.00">domain</text>
</a>
</g>
</g>
<!-- src/modules/reserve&#45;booking&#45;saga/domain -->
<!-- src/modules/booking/domain&#45;&gt;src/modules/reserve&#45;booking&#45;saga/domain -->
<g id="edge6" class="edge">
<title>src/modules/booking/domain&#45;&gt;src/modules/reserve&#45;booking&#45;saga/domain</title>
<path fill="none" stroke="#000000" stroke-opacity="0.200000" d="M288.14,-184.32C337.06,-185.86 442.7,-190.23 531,-200.25 558.41,-203.36 589.72,-208.81 608.78,-212.62"/>
<polygon fill="#000000" fill-opacity="0.200000" stroke="#000000" stroke-opacity="0.200000" points="616.77,-216.53 623.08,-215.78 617.68,-212.43 616.77,-216.53"/>
<polyline fill="none" stroke="#000000" stroke-opacity="0.200000" points="616.74,-214.38 613.81,-213.73"/>
<ellipse fill="none" stroke="#000000" stroke-opacity="0.200000" cx="610.98" cy="-213.11" rx="2.4" ry="2.4"/>
</g>
<!-- src/modules/booking/domain&#45;&gt;src/modules/reserve&#45;booking&#45;saga/controller -->
<g id="edge7" class="edge">
<title>src/modules/booking/domain&#45;&gt;src/modules/reserve&#45;booking&#45;saga/controller</title>
<path fill="none" stroke="#000000" stroke-opacity="0.200000" d="M280.55,-192.67C283.71,-194.8 286.69,-197.32 289,-200.25 320.5,-240.13 282.91,-278.2 323,-309.43 342.84,-324.88 501.15,-326.54 581.11,-326.38"/>
<polygon fill="#000000" fill-opacity="0.200000" stroke="#000000" stroke-opacity="0.200000" points="589.86,-328.45 595.85,-326.33 589.84,-324.25 589.86,-328.45"/>
<polyline fill="none" stroke="#000000" stroke-opacity="0.200000" points="589.35,-326.35 586.35,-326.36"/>
<ellipse fill="none" stroke="#000000" stroke-opacity="0.200000" cx="583.45" cy="-326.37" rx="2.4" ry="2.4"/>
</g>
<!-- src/modules/reserve&#45;booking&#45;saga/domain&#45;&gt;src/modules/booking/domain -->
<g id="edge30" class="edge">
<title>src/modules/reserve&#45;booking&#45;saga/domain&#45;&gt;src/modules/booking/domain</title>
<path fill="none" stroke="#000000" stroke-opacity="0.200000" d="M624.02,-216.71C612.21,-215.29 561.02,-205.02 519,-200.25 439.14,-191.19 345.08,-186.74 295.48,-184.84"/>
<polygon fill="none" stroke="#000000" stroke-opacity="0.200000" points="295.79,-182.75 289.72,-184.63 295.63,-186.95 295.79,-182.75"/>
</g>
<!-- src/modules/reserve&#45;booking&#45;saga/domain/steps -->
<g id="node19" class="node">
<title>src/modules/reserve&#45;booking&#45;saga/domain/steps</title>
<g id="a_node19"><a xlink:href="src/modules/reserve-booking-saga/domain/steps" xlink:title="steps">
<polygon fill="#ffffcc" stroke="black" points="666,-192.25 614.14,-192.25 612,-190.11 612,-173 663.86,-173 666,-175.14 666,-192.25"/>
<polyline fill="none" stroke="black" points="663.86,-190.11 612,-190.11"/>
<polyline fill="none" stroke="black" points="663.86,-190.11 663.86,-173"/>
<polyline fill="none" stroke="black" points="663.86,-190.11 666,-192.25"/>
<text text-anchor="start" x="627" y="-179.7" font-family="Helvetica,sans-Serif" font-size="9.00">steps</text>
</a>
</g>
</g>
<!-- src/modules/reserve&#45;booking&#45;saga/domain&#45;&gt;src/modules/reserve&#45;booking&#45;saga/domain/steps -->
<g id="edge31" class="edge">
<title>src/modules/reserve&#45;booking&#45;saga/domain&#45;&gt;src/modules/reserve&#45;booking&#45;saga/domain/steps</title>
<path fill="none" stroke="#000000" stroke-opacity="0.200000" d="M626.31,-215.97C626.77,-214.63 627.69,-211.96 629.26,-207.73"/>
<polygon fill="#000000" fill-opacity="0.200000" stroke="#000000" stroke-opacity="0.200000" points="634.31,-200.5 634.52,-194.15 630.39,-198.98 634.31,-200.5"/>
<polyline fill="none" stroke="#000000" stroke-opacity="0.200000" points="632.17,-200.21 631.09,-203.01"/>
<ellipse fill="none" stroke="#000000" stroke-opacity="0.200000" cx="630.04" cy="-205.71" rx="2.4" ry="2.4"/>
</g>
<!-- src/modules/reserve&#45;booking&#45;saga/controller&#45;&gt;src/modules/booking/domain -->
<g id="edge27" class="edge">
<title>src/modules/reserve&#45;booking&#45;saga/controller&#45;&gt;src/modules/booking/domain</title>
<path fill="none" stroke="#000000" stroke-width="2" stroke-opacity="0.200000" d="M597.34,-325.54C518.7,-324.04 310.12,-319.18 299,-309.43 266.19,-280.64 294.4,-251.16 280.62,-209.46"/>
<polygon fill="#000000" fill-opacity="0.200000" stroke="#000000" stroke-width="2" stroke-opacity="0.200000" points="278.54,-199.86 274.13,-195.28 274.72,-201.61 278.54,-199.86"/>
<polyline fill="none" stroke="#000000" stroke-width="2" stroke-opacity="0.200000" points="277.04,-201.64 278.29,-204.37"/>
<ellipse fill="none" stroke="#000000" stroke-width="2" stroke-opacity="0.200000" cx="279.7" cy="-207.46" rx="2.4" ry="2.4"/>
</g>
<!-- src/modules/reserve&#45;booking&#45;saga/controller&#45;&gt;src/modules/reserve&#45;booking&#45;saga/application -->
<g id="edge29" class="edge">
<title>src/modules/reserve&#45;booking&#45;saga/controller&#45;&gt;src/modules/reserve&#45;booking&#45;saga/application</title>
<path fill="none" stroke="#000000" stroke-width="2" stroke-opacity="0.200000" d="M656.74,-327.05C656.9,-327.05 657.06,-327.05 657.21,-327.05"/>
<polygon fill="#000000" fill-opacity="0.200000" stroke="#000000" stroke-width="2" stroke-opacity="0.200000" points="662.82,-329.15 668.82,-327.05 662.82,-324.95 662.82,-329.15"/>
<polyline fill="none" stroke="#000000" stroke-width="2" stroke-opacity="0.200000" points="661.82,-327.05 658.82,-327.05"/>
<ellipse fill="none" stroke="#000000" stroke-width="2" stroke-opacity="0.200000" cx="655.42" cy="-327.05" rx="2.4" ry="2.4"/>
</g>
<!-- src/modules/reserve&#45;booking&#45;saga/application/usecases -->
<g id="node17" class="node">
<title>src/modules/reserve&#45;booking&#45;saga/application/usecases</title>
<g id="a_node17"><a xlink:href="src/modules/reserve-booking-saga/application/usecases" xlink:title="usecases">
<polygon fill="#ffffcc" stroke="black" points="728.25,-282.18 673.89,-282.18 671.75,-280.04 671.75,-262.93 726.11,-262.93 728.25,-265.06 728.25,-282.18"/>
<polyline fill="none" stroke="black" points="726.11,-280.04 671.75,-280.04"/>
<polyline fill="none" stroke="black" points="726.11,-280.04 726.11,-262.93"/>
<polyline fill="none" stroke="black" points="726.11,-280.04 728.25,-282.18"/>
<text text-anchor="start" x="679.75" y="-269.62" font-family="Helvetica,sans-Serif" font-size="9.00">usecases</text>
</a>
</g>
</g>
<!-- src/modules/reserve&#45;booking&#45;saga/controller&#45;&gt;src/modules/reserve&#45;booking&#45;saga/application/usecases -->
<g id="edge28" class="edge">
<title>src/modules/reserve&#45;booking&#45;saga/controller&#45;&gt;src/modules/reserve&#45;booking&#45;saga/application/usecases</title>
<path fill="none" stroke="#000000" stroke-width="2" stroke-opacity="0.200000" d="M656.74,-318.48C662.79,-316.06 668.85,-313.05 674,-309.43 678.76,-306.07 683.3,-301.88 687.27,-297.56"/>
<polygon fill="#000000" fill-opacity="0.200000" stroke="#000000" stroke-width="2" stroke-opacity="0.200000" points="694.77,-291.05 696.69,-284.99 691.41,-288.53 694.77,-291.05"/>
<polyline fill="none" stroke="#000000" stroke-width="2" stroke-opacity="0.200000" points="692.49,-290.59 690.69,-293"/>
<ellipse fill="none" stroke="#000000" stroke-width="2" stroke-opacity="0.200000" cx="688.65" cy="-295.72" rx="2.4" ry="2.4"/>
</g>
<!-- src/modules/booking/infra -->
<!-- src/modules/booking/infra/domain&#45;subscriptions -->
<g id="node12" class="node">
<title>src/modules/booking/infra/domain&#45;subscriptions</title>
<g id="a_node12"><a xlink:href="src/modules/booking/infra/domain-subscriptions" xlink:title="domain&#45;subscriptions">
<polygon fill="#ffffcc" stroke="black" points="168.38,-336.68 57.76,-336.68 55.62,-334.54 55.62,-317.43 166.24,-317.43 168.38,-319.56 168.38,-336.68"/>
<polyline fill="none" stroke="black" points="166.24,-334.54 55.62,-334.54"/>
<polyline fill="none" stroke="black" points="166.24,-334.54 166.24,-317.43"/>
<polyline fill="none" stroke="black" points="166.24,-334.54 168.38,-336.68"/>
<text text-anchor="start" x="63.62" y="-324.12" font-family="Helvetica,sans-Serif" font-size="9.00">domain&#45;subscriptions</text>
</a>
</g>
</g>
<!-- src/modules/booking/infra/domain&#45;subscriptions&#45;&gt;src/modules/booking/domain -->
<g id="edge8" class="edge">
<title>src/modules/booking/infra/domain&#45;subscriptions&#45;&gt;src/modules/booking/domain</title>
<path fill="none" stroke="#000000" stroke-width="2" stroke-opacity="0.200000" d="M109.42,-317.25C103.31,-294.42 90.73,-232.79 122,-200.25 135.74,-185.95 188.44,-183.13 224.84,-182.96"/>
<polygon fill="#000000" fill-opacity="0.200000" stroke="#000000" stroke-width="2" stroke-opacity="0.200000" points="224.69,-185.06 230.69,-182.96 224.69,-180.86 224.69,-185.06"/>
</g>
<!-- src/modules/booking/infra/mapper -->
<g id="node13" class="node">
<title>src/modules/booking/infra/mapper</title>
<g id="a_node13"><a xlink:href="src/modules/booking/infra/mapper" xlink:title="mapper">
<polygon fill="#ffffcc" stroke="black" points="211,-282.18 159.14,-282.18 157,-280.04 157,-262.93 208.86,-262.93 211,-265.06 211,-282.18"/>
<polyline fill="none" stroke="black" points="208.86,-280.04 157,-280.04"/>
<polyline fill="none" stroke="black" points="208.86,-280.04 208.86,-262.93"/>
<polyline fill="none" stroke="black" points="208.86,-280.04 211,-282.18"/>
<text text-anchor="start" x="166.38" y="-269.62" font-family="Helvetica,sans-Serif" font-size="9.00">mapper</text>
</a>
</g>
</g>
<!-- src/modules/booking/infra/mapper&#45;&gt;src/modules/booking/domain -->
<g id="edge9" class="edge">
<title>src/modules/booking/infra/mapper&#45;&gt;src/modules/booking/domain</title>
<path fill="none" stroke="#000000" stroke-width="2" stroke-opacity="0.200000" d="M170.64,-262.56C165.7,-258.44 160.65,-253.09 158,-246.93 149.8,-227.87 144.55,-216.04 158,-200.25 165.49,-191.45 191.1,-187.29 214.91,-185.34"/>
<polygon fill="#000000" fill-opacity="0.200000" stroke="#000000" stroke-width="2" stroke-opacity="0.200000" points="224.76,-186.83 230.61,-184.36 224.5,-182.64 224.76,-186.83"/>
<polyline fill="none" stroke="#000000" stroke-width="2" stroke-opacity="0.200000" points="223.63,-184.8 220.63,-184.98"/>
<ellipse fill="none" stroke="#000000" stroke-width="2" stroke-opacity="0.200000" cx="217.24" cy="-185.19" rx="2.4" ry="2.4"/>
</g>
<!-- src/modules/booking/infra/persistence&#45;entities -->
<g id="node14" class="node">
<title>src/modules/booking/infra/persistence&#45;entities</title>
<g id="a_node14"><a xlink:href="src/modules/booking/infra/persistence-entities" xlink:title="persistence&#45;entities">
<polygon fill="#ffffcc" stroke="black" points="267.88,-227.5 166.26,-227.5 164.12,-225.36 164.12,-208.25 265.74,-208.25 267.88,-210.39 267.88,-227.5"/>
<polyline fill="none" stroke="black" points="265.74,-225.36 164.12,-225.36"/>
<polyline fill="none" stroke="black" points="265.74,-225.36 265.74,-208.25"/>
<polyline fill="none" stroke="black" points="265.74,-225.36 267.88,-227.5"/>
<text text-anchor="start" x="172.12" y="-214.95" font-family="Helvetica,sans-Serif" font-size="9.00">persistence&#45;entities</text>
</a>
</g>
</g>
<!-- src/modules/booking/infra/mapper&#45;&gt;src/modules/booking/infra/persistence&#45;entities -->
<g id="edge10" class="edge">
<title>src/modules/booking/infra/mapper&#45;&gt;src/modules/booking/infra/persistence&#45;entities</title>
<path fill="none" stroke="#000000" stroke-opacity="0.200000" d="M189.28,-262.85C192.83,-257.02 197.67,-249.04 202.26,-241.48"/>
<polygon fill="#000000" fill-opacity="0.200000" stroke="#000000" stroke-opacity="0.200000" points="208.49,-235.27 209.82,-229.06 204.91,-233.09 208.49,-235.27"/>
<polyline fill="none" stroke="#000000" stroke-opacity="0.200000" points="206.44,-234.61 204.88,-237.17"/>
<ellipse fill="none" stroke="#000000" stroke-opacity="0.200000" cx="203.38" cy="-239.65" rx="2.4" ry="2.4"/>
</g>
<!-- src/modules/booking/infra/persistence&#45;entities&#45;&gt;src/modules/booking/domain -->
<g id="edge11" class="edge">
<title>src/modules/booking/infra/persistence&#45;entities&#45;&gt;src/modules/booking/domain</title>
<path fill="none" stroke="#000000" stroke-opacity="0.200000" d="M228.3,-207.79C230.68,-206.03 233.25,-204.13 235.87,-202.19"/>
<polygon fill="#000000" fill-opacity="0.200000" stroke="#000000" stroke-opacity="0.200000" points="243.92,-198.85 247.5,-193.6 241.43,-195.48 243.92,-198.85"/>
<polyline fill="none" stroke="#000000" stroke-opacity="0.200000" points="242.27,-197.46 239.86,-199.24"/>
<ellipse fill="none" stroke="#000000" stroke-opacity="0.200000" cx="237.53" cy="-200.97" rx="2.4" ry="2.4"/>
</g>
<!-- src/modules/booking/infra/repository&#45;impls -->
<g id="node15" class="node">
<title>src/modules/booking/infra/repository&#45;impls</title>
<g id="a_node15"><a xlink:href="src/modules/booking/infra/repository-impls" xlink:title="repository&#45;impls">
<polygon fill="#ffffcc" stroke="black" points="268,-336.68 182.14,-336.68 180,-334.54 180,-317.43 265.86,-317.43 268,-319.56 268,-336.68"/>
<polyline fill="none" stroke="black" points="265.86,-334.54 180,-334.54"/>
<polyline fill="none" stroke="black" points="265.86,-334.54 265.86,-317.43"/>
<polyline fill="none" stroke="black" points="265.86,-334.54 268,-336.68"/>
<text text-anchor="start" x="188" y="-324.12" font-family="Helvetica,sans-Serif" font-size="9.00">repository&#45;impls</text>
</a>
</g>
</g>
<!-- src/modules/booking/infra/repository&#45;impls&#45;&gt;src/shared/infra/postgres -->
<g id="edge12" class="edge">
<title>src/modules/booking/infra/repository&#45;impls&#45;&gt;src/shared/infra/postgres</title>
<path fill="none" stroke="#000000" stroke-width="2" stroke-opacity="0.200000" d="M268.42,-317.81C269.63,-317.67 270.82,-317.54 272,-317.43 284.94,-316.16 730.89,-318.7 740,-309.43 782.1,-266.6 707.84,-159.66 692,-149 673.09,-136.28 503.51,-156.72 487,-141 464.91,-119.98 471.66,-79.07 476.26,-60.37"/>
<polygon fill="#000000" fill-opacity="0.200000" stroke="#000000" stroke-width="2" stroke-opacity="0.200000" points="478.27,-60.98 477.84,-54.64 474.22,-59.87 478.27,-60.98"/>
</g>
<!-- src/modules/booking/infra/repository&#45;impls&#45;&gt;src/modules/booking/domain -->
<g id="edge13" class="edge">
<title>src/modules/booking/infra/repository&#45;impls&#45;&gt;src/modules/booking/domain</title>
<path fill="none" stroke="#000000" stroke-opacity="0.200000" d="M179.69,-318.13C165.67,-315.2 153.21,-311.98 151,-309.43 119.22,-272.7 114.21,-236.97 146,-200.25 155.27,-189.54 188.98,-185.58 217.52,-184.18"/>
<polygon fill="#000000" fill-opacity="0.200000" stroke="#000000" stroke-opacity="0.200000" points="226.07,-185.99 232,-183.68 225.93,-181.79 226.07,-185.99"/>
<polyline fill="none" stroke="#000000" stroke-opacity="0.200000" points="225.5,-183.91 222.5,-184.01"/>
<ellipse fill="none" stroke="#000000" stroke-opacity="0.200000" cx="219.6" cy="-184.11" rx="2.4" ry="2.4"/>
</g>
<!-- src/modules/booking/infra/repository&#45;impls&#45;&gt;src/modules/reserve&#45;booking&#45;saga/controller -->
<g id="edge16" class="edge">
<title>src/modules/booking/infra/repository&#45;impls&#45;&gt;src/modules/reserve&#45;booking&#45;saga/controller</title>
<path fill="none" stroke="#000000" stroke-width="2" stroke-opacity="0.200000" d="M229.93,-336.99C238.2,-350.35 254.23,-374.35 272,-391.18 278.9,-397.71 283.55,-396.13 293,-395.18 396.25,-384.75 514.77,-356.64 579.19,-339.97"/>
<polygon fill="#000000" fill-opacity="0.200000" stroke="#000000" stroke-width="2" stroke-opacity="0.200000" points="589.17,-339.52 594.44,-335.96 588.11,-335.45 589.17,-339.52"/>
<polyline fill="none" stroke="#000000" stroke-width="2" stroke-opacity="0.200000" points="587.67,-337.74 584.77,-338.5"/>
<ellipse fill="none" stroke="#000000" stroke-width="2" stroke-opacity="0.200000" cx="581.48" cy="-339.37" rx="2.4" ry="2.4"/>
</g>
<!-- src/modules/booking/infra/repository&#45;impls&#45;&gt;src/modules/booking/infra/mapper -->
<g id="edge14" class="edge">
<title>src/modules/booking/infra/repository&#45;impls&#45;&gt;src/modules/booking/infra/mapper</title>
<path fill="none" stroke="#000000" stroke-width="2" stroke-opacity="0.200000" d="M217.39,-317.38C213.19,-311.87 207.53,-304.44 202.07,-297.26"/>
<polygon fill="#000000" fill-opacity="0.200000" stroke="#000000" stroke-width="2" stroke-opacity="0.200000" points="197.89,-288.32 192.58,-284.82 194.55,-290.86 197.89,-288.32"/>
<polyline fill="none" stroke="#000000" stroke-width="2" stroke-opacity="0.200000" points="196.83,-290.38 198.64,-292.77"/>
<ellipse fill="none" stroke="#000000" stroke-width="2" stroke-opacity="0.200000" cx="200.7" cy="-295.47" rx="2.4" ry="2.4"/>
</g>
<!-- src/modules/booking/infra/repository&#45;impls&#45;&gt;src/modules/booking/infra/persistence&#45;entities -->
<g id="edge15" class="edge">
<title>src/modules/booking/infra/repository&#45;impls&#45;&gt;src/modules/booking/infra/persistence&#45;entities</title>
<path fill="none" stroke="#000000" stroke-opacity="0.200000" d="M223.35,-317.28C222.16,-301.42 219.63,-267.44 217.87,-243.88"/>
<polygon fill="#000000" fill-opacity="0.200000" stroke="#000000" stroke-opacity="0.200000" points="219.32,-235.1 216.78,-229.28 215.13,-235.42 219.32,-235.1"/>
<polyline fill="none" stroke="#000000" stroke-opacity="0.200000" points="217.26,-235.76 217.48,-238.75"/>
<ellipse fill="none" stroke="#000000" stroke-opacity="0.200000" cx="217.7" cy="-241.64" rx="2.4" ry="2.4"/>
</g>
<!-- src/modules/reserve&#45;booking&#45;saga/application&#45;&gt;src/modules/booking/domain -->
<g id="edge20" class="edge">
<title>src/modules/reserve&#45;booking&#45;saga/application&#45;&gt;src/modules/booking/domain</title>
<path fill="none" stroke="#000000" stroke-opacity="0.200000" d="M673.64,-325.01C672.92,-323.11 671.08,-319.08 668,-317.43 651.6,-308.61 347.81,-320.7 333,-309.43 292.66,-278.72 333.83,-238 300,-200.25 298.38,-198.44 296.53,-196.82 294.53,-195.37"/>
<polygon fill="none" stroke="#000000" stroke-opacity="0.200000" points="295.71,-193.63 289.5,-192.31 293.53,-197.22 295.71,-193.63"/>
</g>
<!-- src/modules/reserve&#45;booking&#45;saga/application&#45;&gt;src/modules/booking/infra/persistence&#45;entities -->
<g id="edge21" class="edge">
<title>src/modules/reserve&#45;booking&#45;saga/application&#45;&gt;src/modules/booking/infra/persistence&#45;entities</title>
<path fill="none" stroke="#000000" stroke-opacity="0.200000" d="M673.64,-325.01C672.92,-323.11 671.09,-319.08 668,-317.43 634.22,-299.28 358.85,-323.03 323,-309.43 285.68,-295.26 252.26,-262.08 233.06,-240.06"/>
<polygon fill="#000000" fill-opacity="0.200000" stroke="#000000" stroke-opacity="0.200000" points="229.24,-232.21 223.79,-228.95 226.02,-234.9 229.24,-232.21"/>
<polyline fill="none" stroke="#000000" stroke-opacity="0.200000" points="227.95,-233.94 229.88,-236.24"/>
<ellipse fill="none" stroke="#000000" stroke-opacity="0.200000" cx="231.73" cy="-238.47" rx="2.4" ry="2.4"/>
</g>
<!-- src/modules/reserve&#45;booking&#45;saga/application&#45;&gt;src/modules/reserve&#45;booking&#45;saga/application/usecases -->
<g id="edge19" class="edge">
<title>src/modules/reserve&#45;booking&#45;saga/application&#45;&gt;src/modules/reserve&#45;booking&#45;saga/application/usecases</title>
<path fill="none" stroke="#000000" stroke-width="2" stroke-opacity="0.200000" d="M674.45,-325.14C676.08,-321.85 681.86,-310.19 687.51,-298.78"/>
<polygon fill="#000000" fill-opacity="0.200000" stroke="#000000" stroke-width="2" stroke-opacity="0.200000" points="693.54,-291.33 694.32,-285.02 689.77,-289.47 693.54,-291.33"/>
<polyline fill="none" stroke="#000000" stroke-width="2" stroke-opacity="0.200000" points="691.21,-291.29 689.88,-293.98"/>
<ellipse fill="none" stroke="#000000" stroke-width="2" stroke-opacity="0.200000" cx="688.37" cy="-297.03" rx="2.4" ry="2.4"/>
</g>
<!-- src/modules/reserve&#45;booking&#45;saga/infra/repository&#45;impls -->
<g id="node18" class="node">
<title>src/modules/reserve&#45;booking&#45;saga/infra/repository&#45;impls</title>
<g id="a_node18"><a xlink:href="src/modules/reserve-booking-saga/infra/repository-impls" xlink:title="repository&#45;impls">
<polygon fill="#ffffcc" stroke="black" points="432,-282.18 346.14,-282.18 344,-280.04 344,-262.93 429.86,-262.93 432,-265.06 432,-282.18"/>
<polyline fill="none" stroke="black" points="429.86,-280.04 344,-280.04"/>
<polyline fill="none" stroke="black" points="429.86,-280.04 429.86,-262.93"/>
<polyline fill="none" stroke="black" points="429.86,-280.04 432,-282.18"/>
<text text-anchor="start" x="352" y="-269.62" font-family="Helvetica,sans-Serif" font-size="9.00">repository&#45;impls</text>
</a>
</g>
</g>
<!-- src/modules/reserve&#45;booking&#45;saga/application&#45;&gt;src/modules/reserve&#45;booking&#45;saga/infra/repository&#45;impls -->
<g id="edge22" class="edge">
<title>src/modules/reserve&#45;booking&#45;saga/application&#45;&gt;src/modules/reserve&#45;booking&#45;saga/infra/repository&#45;impls</title>
<path fill="none" stroke="#000000" stroke-width="2" stroke-opacity="0.200000" d="M673.64,-325.02C672.91,-323.11 671.08,-319.1 668,-317.43 645.55,-305.19 462.2,-317.68 438,-309.43 428.52,-306.19 419.28,-300.52 411.37,-294.62"/>
<polygon fill="#000000" fill-opacity="0.200000" stroke="#000000" stroke-width="2" stroke-opacity="0.200000" points="405.26,-286.76 399.31,-284.52 402.56,-289.98 405.26,-286.76"/>
<polyline fill="none" stroke="#000000" stroke-width="2" stroke-opacity="0.200000" points="404.68,-289.01 406.98,-290.94"/>
<ellipse fill="none" stroke="#000000" stroke-width="2" stroke-opacity="0.200000" cx="409.59" cy="-293.12" rx="2.4" ry="2.4"/>
</g>
<!-- src/modules/reserve&#45;booking&#45;saga/application/usecases&#45;&gt;src/modules/booking/domain -->
<g id="edge23" class="edge">
<title>src/modules/reserve&#45;booking&#45;saga/application/usecases&#45;&gt;src/modules/booking/domain</title>
<path fill="none" stroke="#000000" stroke-width="2" stroke-opacity="0.200000" d="M674.79,-262.5C666.64,-259.8 657.5,-257.01 649,-254.93 627.99,-249.78 622.2,-251.21 601,-246.93 513.23,-229.18 493.19,-215.78 405,-200.25 372.43,-194.51 335.36,-190.29 306.99,-187.53"/>
<polygon fill="#000000" fill-opacity="0.200000" stroke="#000000" stroke-width="2" stroke-opacity="0.200000" points="297.66,-184.56 291.49,-186.1 297.27,-188.74 297.66,-184.56"/>
<polyline fill="none" stroke="#000000" stroke-width="2" stroke-opacity="0.200000" points="298.46,-186.74 301.45,-187.02"/>
<ellipse fill="none" stroke="#000000" stroke-width="2" stroke-opacity="0.200000" cx="304.84" cy="-187.33" rx="2.4" ry="2.4"/>
</g>
<!-- src/modules/reserve&#45;booking&#45;saga/application/usecases&#45;&gt;src/modules/reserve&#45;booking&#45;saga/domain -->
<g id="edge24" class="edge">
<title>src/modules/reserve&#45;booking&#45;saga/application/usecases&#45;&gt;src/modules/reserve&#45;booking&#45;saga/domain</title>
<path fill="none" stroke="#000000" stroke-width="2" stroke-opacity="0.200000" d="M687.01,-262.46C680.41,-257.83 672.26,-252.09 665,-246.93 657.52,-241.61 649.27,-235.68 642.29,-230.65"/>
<polygon fill="#000000" fill-opacity="0.200000" stroke="#000000" stroke-width="2" stroke-opacity="0.200000" points="635.76,-223.34 629.66,-221.52 633.3,-226.74 635.76,-223.34"/>
<polyline fill="none" stroke="#000000" stroke-width="2" stroke-opacity="0.200000" points="635.34,-225.62 637.77,-227.38"/>
<ellipse fill="none" stroke="#000000" stroke-width="2" stroke-opacity="0.200000" cx="640.52" cy="-229.37" rx="2.4" ry="2.4"/>
</g>
<!-- src/modules/reserve&#45;booking&#45;saga/application/usecases&#45;&gt;src/modules/reserve&#45;booking&#45;saga/controller -->
<g id="edge26" class="edge">
<title>src/modules/reserve&#45;booking&#45;saga/application/usecases&#45;&gt;src/modules/reserve&#45;booking&#45;saga/controller</title>
<path fill="none" stroke="#000000" stroke-opacity="0.200000" d="M689.12,-282.57C683.46,-288.86 676.39,-297.34 661.86,-307.99"/>
<polygon fill="#000000" fill-opacity="0.200000" stroke="#000000" stroke-opacity="0.200000" points="653.54,-311.06 649.74,-316.15 655.89,-314.54 653.54,-311.06"/>
<polyline fill="none" stroke="#000000" stroke-opacity="0.200000" points="655.13,-312.52 657.62,-310.84"/>
<ellipse fill="none" stroke="#000000" stroke-opacity="0.200000" cx="660.02" cy="-309.22" rx="2.4" ry="2.4"/>
</g>
<!-- src/modules/reserve&#45;booking&#45;saga/application/usecases&#45;&gt;src/modules/reserve&#45;booking&#45;saga/domain/steps -->
<g id="edge25" class="edge">
<title>src/modules/reserve&#45;booking&#45;saga/application/usecases&#45;&gt;src/modules/reserve&#45;booking&#45;saga/domain/steps</title>
<path fill="none" stroke="#000000" stroke-width="2" stroke-opacity="0.200000" d="M697.24,-262.8C692.37,-248.44 681.12,-219.54 664,-200.25 663.38,-199.55 662.72,-198.86 662.03,-198.2"/>
<polygon fill="#000000" fill-opacity="0.200000" stroke="#000000" stroke-width="2" stroke-opacity="0.200000" points="663.63,-196.79 657.66,-194.61 660.97,-200.04 663.63,-196.79"/>
</g>
<!-- src/modules/reserve&#45;booking&#45;saga/infra/repository&#45;impls&#45;&gt;src/shared/infra/postgres -->
<g id="edge37" class="edge">
<title>src/modules/reserve&#45;booking&#45;saga/infra/repository&#45;impls&#45;&gt;src/shared/infra/postgres</title>
<path fill="none" stroke="#000000" stroke-width="2" stroke-opacity="0.200000" d="M410.54,-262.53C419.01,-259.54 428.82,-256.57 438,-254.93 451.08,-252.58 667.76,-256.47 677,-246.93 707.26,-215.64 707.12,-180.42 677,-149 662.38,-133.75 502.28,-155.59 487,-141 464.95,-119.94 471.67,-79.05 476.26,-60.36"/>
<polygon fill="#000000" fill-opacity="0.200000" stroke="#000000" stroke-width="2" stroke-opacity="0.200000" points="478.27,-60.98 477.84,-54.64 474.22,-59.87 478.27,-60.98"/>
</g>
<!-- src/modules/reserve&#45;booking&#45;saga/infra/repository&#45;impls&#45;&gt;src/modules/booking/domain -->
<g id="edge38" class="edge">
<title>src/modules/reserve&#45;booking&#45;saga/infra/repository&#45;impls&#45;&gt;src/modules/booking/domain</title>
<path fill="none" stroke="#000000" stroke-opacity="0.200000" d="M383.4,-262.51C375.11,-247.17 356.17,-216.2 331,-200.25 320.43,-193.55 307.41,-189.55 295.47,-187.16"/>
<polygon fill="none" stroke="#000000" stroke-opacity="0.200000" points="295.98,-185.12 289.71,-186.13 295.25,-189.25 295.98,-185.12"/>
</g>
<!-- src/modules/reserve&#45;booking&#45;saga/infra/repository&#45;impls&#45;&gt;src/modules/booking/infra/persistence&#45;entities -->
<g id="edge39" class="edge">
<title>src/modules/reserve&#45;booking&#45;saga/infra/repository&#45;impls&#45;&gt;src/modules/booking/infra/persistence&#45;entities</title>
<path fill="none" stroke="#000000" stroke-opacity="0.200000" d="M358.43,-262.49C331.73,-254.32 292.03,-242.16 261.32,-232.75"/>
<polygon fill="#000000" fill-opacity="0.200000" stroke="#000000" stroke-opacity="0.200000" points="253.56,-228.18 247.2,-228.43 252.33,-232.2 253.56,-228.18"/>
<polyline fill="none" stroke="#000000" stroke-opacity="0.200000" points="253.42,-230.33 256.29,-231.21"/>
<ellipse fill="none" stroke="#000000" stroke-opacity="0.200000" cx="259.06" cy="-232.06" rx="2.4" ry="2.4"/>
</g>
<!-- src/modules/reserve&#45;booking&#45;saga/infra/repository&#45;impls&#45;&gt;src/modules/booking/infra/repository&#45;impls -->
<g id="edge40" class="edge">
<title>src/modules/reserve&#45;booking&#45;saga/infra/repository&#45;impls&#45;&gt;src/modules/booking/infra/repository&#45;impls</title>
<path fill="none" stroke="#000000" stroke-width="2" stroke-opacity="0.200000" d="M361.18,-282.58C339.15,-289.95 307.12,-300.55 279,-309.43 276.78,-310.13 274.51,-310.84 272.21,-311.55"/>
<polygon fill="#000000" fill-opacity="0.200000" stroke="#000000" stroke-width="2" stroke-opacity="0.200000" points="262.6,-312.3 257.48,-316.06 263.83,-316.31 262.6,-312.3"/>
<polyline fill="none" stroke="#000000" stroke-width="2" stroke-opacity="0.200000" points="264.17,-314.01 267.04,-313.13"/>
<ellipse fill="none" stroke="#000000" stroke-width="2" stroke-opacity="0.200000" cx="270.29" cy="-312.14" rx="2.4" ry="2.4"/>
</g>
<!-- src/modules/reserve&#45;booking&#45;saga/domain/steps&#45;&gt;src/shared/infra/rabbit -->
<g id="edge33" class="edge">
<title>src/modules/reserve&#45;booking&#45;saga/domain/steps&#45;&gt;src/shared/infra/rabbit</title>
<path fill="none" stroke="#000000" stroke-opacity="0.200000" d="M640.86,-172.62C645.36,-150.75 656.94,-94.56 662.68,-66.74"/>
<polygon fill="none" stroke="#000000" stroke-opacity="0.200000" points="664.67,-67.47 663.83,-61.17 660.56,-66.63 664.67,-67.47"/>
</g>
<!-- src/modules/reserve&#45;booking&#45;saga/domain/steps&#45;&gt;src/modules/booking/domain -->
<g id="edge32" class="edge">
<title>src/modules/reserve&#45;booking&#45;saga/domain/steps&#45;&gt;src/modules/booking/domain</title>
<path fill="none" stroke="#000000" stroke-width="2" stroke-opacity="0.200000" d="M611.6,-182.62C510.05,-182.62 408.5,-182.62 306.94,-182.62"/>
<polygon fill="#000000" fill-opacity="0.200000" stroke="#000000" stroke-width="2" stroke-opacity="0.200000" points="297.34,-180.53 291.34,-182.63 297.34,-184.73 297.34,-180.53"/>
<polyline fill="none" stroke="#000000" stroke-width="2" stroke-opacity="0.200000" points="298.34,-182.63 301.34,-182.63"/>
<ellipse fill="none" stroke="#000000" stroke-width="2" stroke-opacity="0.200000" cx="304.74" cy="-182.63" rx="2.4" ry="2.4"/>
</g>
<!-- src/modules/reserve&#45;booking&#45;saga/domain/steps&#45;&gt;src/modules/reserve&#45;booking&#45;saga/controller -->
<g id="edge34" class="edge">
<title>src/modules/reserve&#45;booking&#45;saga/domain/steps&#45;&gt;src/modules/reserve&#45;booking&#45;saga/controller</title>
<path fill="none" stroke="#000000" stroke-width="2" stroke-opacity="0.200000" d="M642.66,-192.45C649.93,-211.29 664.69,-256.81 650.33,-299.8"/>
<polygon fill="#000000" fill-opacity="0.200000" stroke="#000000" stroke-width="2" stroke-opacity="0.200000" points="644.5,-307.92 644.03,-314.26 648.35,-309.6 644.5,-307.92"/>
<polyline fill="none" stroke="#000000" stroke-width="2" stroke-opacity="0.200000" points="646.83,-307.84 648.03,-305.09"/>
<ellipse fill="none" stroke="#000000" stroke-width="2" stroke-opacity="0.200000" cx="649.39" cy="-301.98" rx="2.4" ry="2.4"/>
</g>
<!-- src/modules/reserve&#45;booking&#45;saga/infra -->
<!-- src/modules/reserve&#45;booking&#45;saga/infra/crons -->
<g id="node21" class="node">
<title>src/modules/reserve&#45;booking&#45;saga/infra/crons</title>
<g id="a_node21"><a xlink:href="src/modules/reserve-booking-saga/infra/crons" xlink:title="crons">
<polygon fill="#ffffcc" stroke="black" points="514,-282.18 462.14,-282.18 460,-280.04 460,-262.93 511.86,-262.93 514,-265.06 514,-282.18"/>
<polyline fill="none" stroke="black" points="511.86,-280.04 460,-280.04"/>
<polyline fill="none" stroke="black" points="511.86,-280.04 511.86,-262.93"/>
<polyline fill="none" stroke="black" points="511.86,-280.04 514,-282.18"/>
<text text-anchor="start" x="474.62" y="-269.62" font-family="Helvetica,sans-Serif" font-size="9.00">crons</text>
</a>
</g>
</g>
<!-- src/modules/reserve&#45;booking&#45;saga/infra/crons&#45;&gt;src/modules/booking/domain -->
<g id="edge35" class="edge">
<title>src/modules/reserve&#45;booking&#45;saga/infra/crons&#45;&gt;src/modules/booking/domain</title>
<path fill="none" stroke="#000000" stroke-opacity="0.200000" d="M473.91,-262.53C451.07,-247.23 401.96,-216.29 356,-200.25 336.46,-193.43 313.65,-189.32 295.27,-186.89"/>
<polygon fill="none" stroke="#000000" stroke-opacity="0.200000" points="295.92,-184.86 289.71,-186.2 295.4,-189.03 295.92,-184.86"/>
</g>
<!-- src/modules/reserve&#45;booking&#45;saga/infra/domain&#45;subscriptions -->
<g id="node22" class="node">
<title>src/modules/reserve&#45;booking&#45;saga/infra/domain&#45;subscriptions</title>
<g id="a_node22"><a xlink:href="src/modules/reserve-booking-saga/infra/domain-subscriptions" xlink:title="domain&#45;subscriptions">
<polygon fill="#ffffcc" stroke="black" points="638.38,-282.18 527.76,-282.18 525.62,-280.04 525.62,-262.93 636.24,-262.93 638.38,-265.06 638.38,-282.18"/>
<polyline fill="none" stroke="black" points="636.24,-280.04 525.62,-280.04"/>
<polyline fill="none" stroke="black" points="636.24,-280.04 636.24,-262.93"/>
<polyline fill="none" stroke="black" points="636.24,-280.04 638.38,-282.18"/>
<text text-anchor="start" x="533.62" y="-269.62" font-family="Helvetica,sans-Serif" font-size="9.00">domain&#45;subscriptions</text>
</a>
</g>
</g>
<!-- src/modules/reserve&#45;booking&#45;saga/infra/domain&#45;subscriptions&#45;&gt;src/modules/reserve&#45;booking&#45;saga/domain -->
<g id="edge36" class="edge">
<title>src/modules/reserve&#45;booking&#45;saga/infra/domain&#45;subscriptions&#45;&gt;src/modules/reserve&#45;booking&#45;saga/domain</title>
<path fill="none" stroke="#000000" stroke-width="2" stroke-opacity="0.200000" d="M589.27,-262.85C597.76,-252.68 611.68,-236.02 619.72,-226.39"/>
<polygon fill="#000000" fill-opacity="0.200000" stroke="#000000" stroke-width="2" stroke-opacity="0.200000" points="621.22,-227.88 623.45,-221.93 617.99,-225.19 621.22,-227.88"/>
</g>
<!-- src/shared -->
<!-- src/shared/infra -->
<!-- src/shared/infra/postgres/migrations -->
<g id="node25" class="node">
<title>src/shared/infra/postgres/migrations</title>
<g id="a_node25"><a xlink:href="src/shared/infra/postgres/migrations" xlink:title="migrations">
<polygon fill="#ccffcc" stroke="orange" points="557,-59.25 495.14,-59.25 493,-57.11 493,-40 554.86,-40 557,-42.14 557,-59.25"/>
<polyline fill="none" stroke="orange" points="554.86,-57.11 493,-57.11"/>
<polyline fill="none" stroke="orange" points="554.86,-57.11 554.86,-40"/>
<polyline fill="none" stroke="orange" points="554.86,-57.11 557,-59.25"/>
<text text-anchor="start" x="501" y="-46.7" font-family="Helvetica,sans-Serif" font-size="9.00" fill="orange">migrations</text>
</a>
</g>
</g>
<!-- src/shared/infra/postgres/seeds -->
<g id="node26" class="node">
<title>src/shared/infra/postgres/seeds</title>
<g id="a_node26"><a xlink:href="src/shared/infra/postgres/seeds" xlink:title="seeds">
<polygon fill="#ccffcc" stroke="orange" points="623,-59.25 571.14,-59.25 569,-57.11 569,-40 620.86,-40 623,-42.14 623,-59.25"/>
<polyline fill="none" stroke="orange" points="620.86,-57.11 569,-57.11"/>
<polyline fill="none" stroke="orange" points="620.86,-57.11 620.86,-40"/>
<polyline fill="none" stroke="orange" points="620.86,-57.11 623,-59.25"/>
<text text-anchor="start" x="583.25" y="-46.7" font-family="Helvetica,sans-Serif" font-size="9.00" fill="orange">seeds</text>
</a>
</g>
</g>
</g>
</svg>
